<?xml version="1.0" encoding="UTF-8" standalone="no"?>
<!DOCTYPE svg PUBLIC "-//W3C//DTD SVG 1.1//EN"
 "http://www.w3.org/Graphics/SVG/1.1/DTD/svg11.dtd">
<!-- Generated by graphviz version 2.38.0 (20140413.2041)
 -->
<!-- Title: %3 Pages: 1 -->
<svg width="243pt" height="305pt"
 viewBox="0.00 0.00 242.59 305.00" xmlns="http://www.w3.org/2000/svg" xmlns:xlink="http://www.w3.org/1999/xlink">
<g id="graph0" class="graph" transform="scale(1 1) rotate(0) translate(4 301)">
<title>%3</title>
<polygon fill="white" stroke="none" points="-4,4 -4,-301 238.592,-301 238.592,4 -4,4"/>
<!-- kilogram -->
<g id="node1" class="node"><title>kilogram</title>
<ellipse fill="none" stroke="black" cx="42.8962" cy="-279" rx="42.7926" ry="18"/>
<text text-anchor="middle" x="42.8962" y="-275.3" font-family="Times,serif" font-size="14.00">kilogram</text>
</g>
<!-- gram -->
<g id="node2" class="node"><title>gram</title>
<ellipse fill="none" stroke="black" cx="85.8962" cy="-105" rx="29.4969" ry="18"/>
<text text-anchor="middle" x="85.8962" y="-101.3" font-family="Times,serif" font-size="14.00">gram</text>
</g>
<!-- kilogram&#45;&gt;gram -->
<g id="edge1" class="edge"><title>kilogram&#45;&gt;gram</title>
<path fill="none" stroke="black" d="M34.7146,-261.264C25.6274,-240.264 13.6286,-203.434 24.8962,-174 32.1004,-155.18 47.1806,-138.291 60.5437,-126.051"/>
<polygon fill="black" stroke="black" points="62.9204,-128.622 68.1408,-119.403 58.3105,-123.355 62.9204,-128.622"/>
<text text-anchor="middle" x="38.8962" y="-188.3" font-family="Times,serif" font-size="14.00">1000</text>
</g>
<!-- pound -->
<g id="node3" class="node"><title>pound</title>
<ellipse fill="none" stroke="black" cx="93.8962" cy="-192" rx="32.4942" ry="18"/>
<text text-anchor="middle" x="93.8962" y="-188.3" font-family="Times,serif" font-size="14.00">pound</text>
</g>
<!-- kilogram&#45;&gt;pound -->
<g id="edge3" class="edge"><title>kilogram&#45;&gt;pound</title>
<path fill="none" stroke="red" stroke-dasharray="5,2" d="M52.9722,-261.207C60.4018,-248.824 70.6296,-231.778 79.0017,-217.824"/>
<polygon fill="red" stroke="red" points="82.0434,-219.557 84.1872,-209.182 76.041,-215.956 82.0434,-219.557"/>
<text text-anchor="middle" x="86.3962" y="-231.8" font-family="Times,serif" font-size="14.00">x = ?</text>
</g>
<!-- tablespoon -->
<g id="node5" class="node"><title>tablespoon</title>
<ellipse fill="none" stroke="black" cx="139.896" cy="-18" rx="48.9926" ry="18"/>
<text text-anchor="middle" x="139.896" y="-14.3" font-family="Times,serif" font-size="14.00">tablespoon</text>
</g>
<!-- gram&#45;&gt;tablespoon -->
<g id="edge6" class="edge"><title>gram&#45;&gt;tablespoon</title>
<path fill="none" stroke="red" stroke-dasharray="5,2" d="M96.0532,-88.0122C103.822,-75.7828 114.689,-58.6772 123.661,-44.556"/>
<polygon fill="red" stroke="red" points="126.822,-46.1061 129.231,-35.7885 120.914,-42.3524 126.822,-46.1061"/>
<text text-anchor="middle" x="131.396" y="-57.8" font-family="Times,serif" font-size="14.00">y = ?</text>
</g>
<!-- pound&#45;&gt;gram -->
<g id="edge2" class="edge"><title>pound&#45;&gt;gram</title>
<path fill="none" stroke="black" d="M92.2773,-173.799C91.1821,-162.163 89.7125,-146.548 88.4597,-133.237"/>
<polygon fill="black" stroke="black" points="91.9344,-132.803 87.5127,-123.175 84.9652,-133.459 91.9344,-132.803"/>
<text text-anchor="middle" x="106.396" y="-144.8" font-family="Times,serif" font-size="14.00">453.6</text>
</g>
<!-- fluid ounce -->
<g id="node4" class="node"><title>fluid ounce</title>
<ellipse fill="none" stroke="black" cx="183.896" cy="-105" rx="50.8918" ry="18"/>
<text text-anchor="middle" x="183.896" y="-101.3" font-family="Times,serif" font-size="14.00">fluid ounce</text>
</g>
<!-- fluid ounce&#45;&gt;tablespoon -->
<g id="edge4" class="edge"><title>fluid ounce&#45;&gt;tablespoon</title>
<path fill="none" stroke="black" d="M175.203,-87.2067C168.936,-75.0991 160.36,-58.5329 153.23,-44.759"/>
<polygon fill="black" stroke="black" points="156.276,-43.0301 148.571,-35.7584 150.06,-46.2481 156.276,-43.0301"/>
<text text-anchor="middle" x="167.396" y="-57.8" font-family="Times,serif" font-size="14.00">2</text>
</g>
<!-- gallon -->
<g id="node6" class="node"><title>gallon</title>
<ellipse fill="none" stroke="black" cx="183.896" cy="-192" rx="32.4942" ry="18"/>
<text text-anchor="middle" x="183.896" y="-188.3" font-family="Times,serif" font-size="14.00">gallon</text>
</g>
<!-- gallon&#45;&gt;fluid ounce -->
<g id="edge5" class="edge"><title>gallon&#45;&gt;fluid ounce</title>
<path fill="none" stroke="black" d="M183.896,-173.799C183.896,-162.163 183.896,-146.548 183.896,-133.237"/>
<polygon fill="black" stroke="black" points="187.396,-133.175 183.896,-123.175 180.396,-133.175 187.396,-133.175"/>
<text text-anchor="middle" x="194.396" y="-144.8" font-family="Times,serif" font-size="14.00">128</text>
</g>
</g>
</svg>
